<svg xmlns="http://www.w3.org/2000/svg" xmlns:xlink="http://www.w3.org/1999/xlink" id="Group_281" data-name="Group 281" width="67.66" height="86.704" viewBox="0 0 67.66 86.704"><defs><clipPath id="clip-path"><rect id="Rectangle_125" data-name="Rectangle 125" width="67.66" height="86.704" fill="none"></rect></clipPath></defs><g id="Group_281-2" data-name="Group 281" clip-path="url(#clip-path)"><path id="Path_391" data-name="Path 391" d="M75.051,78.637a7.572,7.572,0,1,1,15.144,0" transform="translate(-48.793 -46.201)" fill="none" stroke="#344154" stroke-linecap="round" stroke-linejoin="round" stroke-width="3.5"></path><path id="Path_392" data-name="Path 392" d="M135.948,163.61a19.717,19.717,0,0,1-2.058,7.842c-2.6,4.745-5.155,8.325-5.155,14.277" transform="translate(-83.694 -106.368)" fill="none" stroke="#344154" stroke-linecap="round" stroke-miterlimit="10" stroke-width="3.5"></path><path id="Path_393" data-name="Path 393" d="M110.937,127.067c.209-6.2.536-7.818-.775-8.7-1.486-1.005-2.986.233-4.149,1.385" transform="translate(-68.922 -76.711)" fill="none" stroke="#344154" stroke-linecap="round" stroke-miterlimit="10" stroke-width="3.5"></path><path id="Path_394" data-name="Path 394" d="M125.569,135.619c.209-6.2.536-7.817-.775-8.7-1.486-1.005-2.986.233-4.149,1.385" transform="translate(-78.435 -82.271)" fill="none" stroke="#344154" stroke-linecap="round" stroke-miterlimit="10" stroke-width="3.5"></path><path id="Path_395" data-name="Path 395" d="M140.2,146.748c.209-6.2.536-7.817-.775-8.7-1.486-1.005-2.986.233-4.149,1.385" transform="translate(-87.948 -89.506)" fill="none" stroke="#344154" stroke-linecap="round" stroke-miterlimit="10" stroke-width="3.5"></path><path id="Path_396" data-name="Path 396" d="M67.991,233.211v-4.5a1.882,1.882,0,0,1,1.882-1.882H90.755a1.882,1.882,0,0,1,1.882,1.882v4.5" transform="translate(-44.203 -147.469)" fill="none" stroke="#344154" stroke-linecap="round" stroke-miterlimit="10" stroke-width="3.5"></path><path id="Path_397" data-name="Path 397" d="M63.142,135.945v-6.191c0-9.591-2.716-12.372-6.106-16.482a11.787,11.787,0,0,1-2.1-6.96,2.8,2.8,0,0,1,5.529-.435,7.155,7.155,0,0,1,.143.957,4.626,4.626,0,0,0,2.5,3.793,2.8,2.8,0,0,0,4.06-2.506V89.645a2.61,2.61,0,1,1,5.221,0v15.435" transform="translate(-35.699 -56.584)" fill="none" stroke="#344154" stroke-linecap="round" stroke-miterlimit="10" stroke-width="3.5"></path><path id="Path_398" data-name="Path 398" d="M24.857,28.954H7.064A4.313,4.313,0,0,1,2.75,24.641V7.063A4.314,4.314,0,0,1,7.064,2.749H64.172a4.314,4.314,0,0,1,4.314,4.314V24.641a4.313,4.313,0,0,1-4.314,4.313H45.926" transform="translate(-1.788 -1.787)" fill="none" stroke="#344154" stroke-linecap="round" stroke-linejoin="round" stroke-width="3.5"></path><text id="BOOK" transform="translate(34 19)" fill="#414141" font-size="16" font-family="OpenSans-Bold, Open Sans" font-weight="700"><tspan x="-23.422" y="0">BOOK</tspan></text></g></svg>