<svg xmlns="http://www.w3.org/2000/svg" xmlns:xlink="http://www.w3.org/1999/xlink" width="71.466" height="70.894" viewBox="0 0 71.466 70.894"><defs><clipPath id="clip-path"><rect id="Rectangle_127" data-name="Rectangle 127" width="71.466" height="70.893" fill="none"></rect></clipPath></defs><g id="Group_261" data-name="Group 261" transform="translate(-5.773)"><g id="Group_282" data-name="Group 282" transform="translate(5.773)"><path id="Path_399" data-name="Path 399" d="M31.32,192.728l5.408,4.823,7.8-9.536" transform="translate(-22.14 -132.908)" fill="none" stroke="#344154" stroke-linecap="round" stroke-linejoin="round" stroke-width="3.5"></path><g id="Group_283" data-name="Group 283"><g id="Group_282-2" data-name="Group 282" clip-path="url(#clip-path)"><rect id="Rectangle_126" data-name="Rectangle 126" width="28.456" height="20.112" transform="translate(0.806 49.975)" fill="none" stroke="#344154" stroke-linecap="round" stroke-linejoin="round" stroke-width="3.5"></rect><path id="Path_400" data-name="Path 400" d="M35.663,133.612a11.072,11.072,0,0,0-22.145,0" transform="translate(-9.556 -86.624)" fill="none" stroke="#344154" stroke-linecap="round" stroke-linejoin="round" stroke-width="3.5"></path><path id="Path_401" data-name="Path 401" d="M80.681,105.03a15.248,15.248,0,1,0-12.5-18.643" transform="translate(-48.195 -52.811)" fill="none" stroke="#344154" stroke-linecap="round" stroke-linejoin="round" stroke-width="3.5"></path><path id="Path_402" data-name="Path 402" d="M132.231,24.361,153.842,2.75h6.617a3.675,3.675,0,0,1,3.676,3.676v6.617l-3.322,3.324v5.111l-5,0v5.111l-5.059-.052V31.65h-5.006l-2.862,2.862" transform="translate(-93.475 -1.944)" fill="none" stroke="#344154" stroke-linecap="round" stroke-linejoin="round" stroke-width="3.5"></path><line id="Line_31" data-name="Line 31" y1="13.094" x2="13.094" transform="translate(49.376 9.35)" fill="none" stroke="#344154" stroke-linecap="round" stroke-linejoin="round" stroke-width="3.5"></line><path id="Path_403" data-name="Path 403" d="M109.652,117.622a5.347,5.347,0,1,0-7.562,0A5.347,5.347,0,0,0,109.652,117.622Z" transform="translate(-71.061 -76.694)" fill="none" stroke="#344154" stroke-linecap="round" stroke-linejoin="round" stroke-width="3.5"></path></g></g></g></g></svg>