<svg id="Group_278" data-name="Group 278" xmlns="http://www.w3.org/2000/svg" xmlns:xlink="http://www.w3.org/1999/xlink" width="77.641" height="87.128" viewBox="0 0 77.641 87.128">
  <defs>
    <clipPath id="clip-path">
      <rect id="Rectangle_123" data-name="Rectangle 123" width="77.641" height="87.129" fill="none"/>
    </clipPath>
  </defs>
  <g id="Group_279" data-name="Group 279">
    <g id="Group_278-2" data-name="Group 278" clip-path="url(#clip-path)">
      <path id="Path_368" data-name="Path 368" d="M52.262,37.227V81.262a6.007,6.007,0,0,1-6.007,6.006H9.1a6.957,6.957,0,0,1-6.957-6.957V8.876A6.733,6.733,0,0,1,8.877,2.143H45.529a6.733,6.733,0,0,1,6.733,6.733V27.825" transform="translate(-1.142 -1.142)" fill="none" stroke="#344154" stroke-linecap="round" stroke-miterlimit="10" stroke-width="3.5"/>
      <path id="Path_369" data-name="Path 369" d="M30.627,2.143v3.29a3.641,3.641,0,0,0,3.641,3.641H50.483a3.641,3.641,0,0,0,3.641-3.641V2.143" transform="translate(-16.314 -1.142)" fill="none" stroke="#344154" stroke-linecap="round" stroke-miterlimit="10" stroke-width="3.5"/>
      <path id="Path_370" data-name="Path 370" d="M48.566,61.16A18.758,18.758,0,1,0,53.9,70.779" transform="translate(-8.885 -29.762)" fill="none" stroke="#344154" stroke-linecap="round" stroke-miterlimit="10" stroke-width="3.5"/>
      <line id="Line_30" data-name="Line 30" y1="15.795" x2="28.755" transform="translate(26.606 29.127)" fill="none" stroke="#344154" stroke-linecap="round" stroke-miterlimit="10" stroke-width="3.5"/>
      <path id="Path_371" data-name="Path 371" d="M126.684,55.146l-8.22-2.186,2.187-8.219" transform="translate(-63.104 -23.832)" fill="none" stroke="#344154" stroke-linecap="round" stroke-miterlimit="10" stroke-width="3.5"/>
      <path id="Path_372" data-name="Path 372" d="M140.658,47.2l-8.218-2.186,2.186-8.219" transform="translate(-70.548 -19.602)" fill="none" stroke="#344154" stroke-linecap="round" stroke-miterlimit="10" stroke-width="3.5"/>
      <path id="Path_373" data-name="Path 373" d="M154.63,39.261l-8.219-2.186,2.187-8.219" transform="translate(-77.99 -15.371)" fill="none" stroke="#344154" stroke-linecap="round" stroke-miterlimit="10" stroke-width="3.5"/>
      <path id="Path_374" data-name="Path 374" d="M57.87,82.214l-1.482,6.579,6.777,1.977" transform="translate(-30.037 -43.794)" fill="none" stroke="#344154" stroke-linecap="round" stroke-miterlimit="10" stroke-width="3.5"/>
      <path id="Path_375" data-name="Path 375" d="M53.4,91.517A9.591,9.591,0,1,1,44.044,76.03" transform="translate(-19.392 -40.5)" fill="none" stroke="#344154" stroke-linecap="round" stroke-miterlimit="10" stroke-width="3.5"/>
    </g>
  </g>
</svg>
