<svg xmlns="http://www.w3.org/2000/svg" width="56.695" height="85.042" viewBox="0 0 56.695 85.042"><path id="iconmonstr-location-pin-thin" d="M32.347,35.434a7.087,7.087,0,1,1,7.087-7.087,7.089,7.089,0,0,1-7.087,7.087m0-17.717a10.63,10.63,0,1,0,10.63,10.63,10.63,10.63,0,0,0-10.63-10.63m-24.8,9.22c0-12.462,11.591-23.394,24.8-23.394s24.8,10.931,24.8,23.394c0,12.243-9.082,26.728-24.8,51.475C16.441,53.35,7.543,39.18,7.543,26.937M32.347,0C17.472,0,4,12.058,4,26.937s12.292,32.635,28.347,58.1c16.055-25.47,28.347-43.23,28.347-58.1S47.226,0,32.347,0" transform="translate(-4)" fill-rule="evenodd"></path></svg>