<svg xmlns="http://www.w3.org/2000/svg" xmlns:xlink="http://www.w3.org/1999/xlink" id="Group_284" data-name="Group 284" width="83.11" height="82.695" viewBox="0 0 83.11 82.695"><defs><clipPath id="clip-path"><rect id="Rectangle_128" data-name="Rectangle 128" width="83.11" height="82.695" fill="none"></rect></clipPath></defs><g id="Group_285" data-name="Group 285"><g id="Group_284-2" data-name="Group 284" clip-path="url(#clip-path)"><path id="Path_405" data-name="Path 405" d="M64.148,60.873h4.578a5.253,5.253,0,0,0,5.252-5.252V6a3.86,3.86,0,0,0-3.859-3.86H6A3.86,3.86,0,0,0,2.143,6V55.62A5.253,5.253,0,0,0,7.4,60.873h4.4" transform="translate(-1.286 -1.285)" fill="none" stroke="#344154" stroke-linecap="round" stroke-linejoin="round" stroke-width="3.5"></path><circle id="Ellipse_32" data-name="Ellipse 32" cx="0.676" cy="0.676" r="0.676" transform="translate(9.045 8.08) rotate(-10.901)" fill="none" stroke="#344154" stroke-linecap="round" stroke-linejoin="round" stroke-width="3.5"></circle><circle id="Ellipse_33" data-name="Ellipse 33" cx="0.676" cy="0.676" r="0.676" transform="translate(16.74 8.095) rotate(-11.981)" fill="none" stroke="#344154" stroke-linecap="round" stroke-linejoin="round" stroke-width="3.5"></circle><circle id="Ellipse_34" data-name="Ellipse 34" cx="0.676" cy="0.676" r="0.676" transform="translate(24.444 8.095) rotate(-11.981)" fill="none" stroke="#344154" stroke-linecap="round" stroke-linejoin="round" stroke-width="3.5"></circle><line id="Line_32" data-name="Line 32" x2="71.835" transform="translate(0.857 16.231)" fill="none" stroke="#344154" stroke-linecap="round" stroke-linejoin="round" stroke-width="3.5"></line><path id="Path_406" data-name="Path 406" d="M86.125,131.017A11.787,11.787,0,1,1,74.338,119.23,11.787,11.787,0,0,1,86.125,131.017Z" transform="translate(-37.538 -71.552)" fill="none" stroke="#344154" stroke-linecap="round" stroke-linejoin="round" stroke-width="3.5"></path><path id="Path_407" data-name="Path 407" d="M80.823,115.619h0a3.736,3.736,0,0,0-3.736-3.736H76.71a18.4,18.4,0,0,0-2.675-6.445l.271-.271a3.736,3.736,0,1,0-5.283-5.283l-.27.27a18.409,18.409,0,0,0-6.445-2.675V97.1a3.736,3.736,0,0,0-7.471,0v.377a18.405,18.405,0,0,0-6.445,2.675l-.271-.27a3.736,3.736,0,1,0-5.283,5.283l.27.271a18.405,18.405,0,0,0-2.675,6.445h-.377a3.736,3.736,0,0,0,0,7.471h.377a18.405,18.405,0,0,0,2.675,6.445l-.27.271a3.736,3.736,0,0,0,5.283,5.283l.271-.27a18.405,18.405,0,0,0,6.445,2.675v.377a3.736,3.736,0,1,0,7.471,0v-.377a18.409,18.409,0,0,0,6.445-2.675l.27.27a3.736,3.736,0,0,0,5.283-5.283l-.271-.271a18.4,18.4,0,0,0,2.675-6.445h.377A3.736,3.736,0,0,0,80.823,115.619Z" transform="translate(-21.796 -56.032)" fill="none" stroke="#344154" stroke-linecap="round" stroke-linejoin="round" stroke-width="3.5"></path></g></g></svg>