<svg xmlns="http://www.w3.org/2000/svg" xmlns:xlink="http://www.w3.org/1999/xlink" id="Group_276" data-name="Group 276" width="92.439" height="63.712" viewBox="0 0 92.439 63.712"><defs><clipPath id="clip-path"><rect id="Rectangle_122" data-name="Rectangle 122" width="92.439" height="63.713" fill="none"></rect></clipPath></defs><g id="Group_277" data-name="Group 277"><g id="Group_276-2" data-name="Group 276" clip-path="url(#clip-path)"><ellipse id="Ellipse_30" data-name="Ellipse 30" cx="6.686" cy="24.299" rx="6.686" ry="24.299" transform="translate(61.514 1.012)" fill="none" stroke="#000" stroke-linecap="round" stroke-linejoin="round" stroke-width="3.5"></ellipse><path id="Path_363" data-name="Path 363" d="M72.833,51.338c-6.951-5.544-21.943-7.944-29.654-8.844a4.293,4.293,0,0,0-4.795,4.264v20a1.6,1.6,0,0,1-1.6,1.6H30.121a1.6,1.6,0,0,1-1.6-1.6V42.027H18.736a2.2,2.2,0,0,1-2.2-2.2V24.432a2.2,2.2,0,0,1,2.2-2.2H38.71s24.54-1.668,34.123-9.311" transform="translate(-8.725 -6.817)" fill="none" stroke="#000" stroke-linecap="round" stroke-linejoin="round" stroke-width="3.5"></path><path id="Path_364" data-name="Path 364" d="M8.938,41.657h-1.3a5.49,5.49,0,0,0,0,10.981h1.3" transform="translate(-1.131 -21.985)" fill="none" stroke="#000" stroke-linecap="round" stroke-linejoin="round" stroke-width="3.5"></path><line id="Line_29" data-name="Line 29" x2="4.947" transform="translate(19.793 35.21)" fill="none" stroke="#000" stroke-linecap="round" stroke-linejoin="round" stroke-width="3.5"></line><path id="Path_365" data-name="Path 365" d="M171.856,54.93a15.367,15.367,0,0,0,0-14.614" transform="translate(-90.697 -21.277)" fill="none" stroke="#000" stroke-linecap="round" stroke-linejoin="round" stroke-width="3.5"></path><path id="Path_366" data-name="Path 366" d="M186.124,54.148a29.347,29.347,0,0,0,0-27.911" transform="translate(-98.227 -13.847)" fill="none" stroke="#000" stroke-linecap="round" stroke-linejoin="round" stroke-width="3.5"></path></g></g></svg>