<svg xmlns="http://www.w3.org/2000/svg" xmlns:xlink="http://www.w3.org/1999/xlink" id="Group_261" data-name="Group 261" width="83.013" height="71" viewBox="0 0 83.013 71"><defs><clipPath id="clip-path"><rect id="Rectangle_121" data-name="Rectangle 121" width="83.013" height="71" fill="none"></rect></clipPath></defs><g id="Group_260" data-name="Group 260" transform="translate(0 0)" clip-path="url(#clip-path)"><path id="Path_348" data-name="Path 348" d="M66.462,83.332a.254.254,0,1,1-.255-.255A.254.254,0,0,1,66.462,83.332Z" transform="translate(-24.7 -31.114)" fill="none" stroke="#414141" stroke-linecap="round" stroke-linejoin="round" stroke-width="3.5"></path><path id="Path_349" data-name="Path 349" d="M55.246,89.935H68.064a25.563,25.563,0,0,0,.343,6.489,9,9,0,0,0,4.989,6.028c.751.385.4,1.292-.5,1.292H37.6c-.9,0-1.25-.907-.5-1.292a9,9,0,0,0,4.989-6.028,25.58,25.58,0,0,0,.343-6.489Z" transform="translate(-13.74 -33.682)" fill="none" stroke="#414141" stroke-linecap="round" stroke-linejoin="round" stroke-width="3.5"></path><line id="Line_24" data-name="Line 24" x2="63.549" transform="translate(9.732 47.005)" fill="none" stroke="#414141" stroke-linecap="round" stroke-linejoin="round" stroke-width="3.5"></line><path id="Rectangle_120" data-name="Rectangle 120" d="M5.881,0H75.256a5.881,5.881,0,0,1,5.881,5.881V49.433a5.882,5.882,0,0,1-5.882,5.882H5.881A5.881,5.881,0,0,1,0,49.434V5.881A5.881,5.881,0,0,1,5.881,0Z" transform="translate(0.938 0.938)" fill="none" stroke="#414141" stroke-linecap="round" stroke-linejoin="round" stroke-width="3"></path><path id="Path_350" data-name="Path 350" d="M21.014,19.7H17.337a1.777,1.777,0,0,0-1.778,1.777v3.677a1.777,1.777,0,0,0,1.778,1.778h3.677a1.777,1.777,0,0,0,1.777-1.778V21.478A1.777,1.777,0,0,0,21.014,19.7" transform="translate(-5.827 -7.378)" fill="#ededee"></path><path id="Path_351" data-name="Path 351" d="M43.475,19.7H39.894a1.826,1.826,0,0,0-1.826,1.826v3.58a1.826,1.826,0,0,0,1.826,1.826h3.581A1.826,1.826,0,0,0,45.3,25.107v-3.58A1.826,1.826,0,0,0,43.475,19.7" transform="translate(-14.257 -7.378)" fill="#ededee"></path><path id="Path_352" data-name="Path 352" d="M65.985,19.7H62.4a1.826,1.826,0,0,0-1.826,1.826v3.58A1.826,1.826,0,0,0,62.4,26.933h3.581a1.826,1.826,0,0,0,1.826-1.826v-3.58A1.826,1.826,0,0,0,65.985,19.7" transform="translate(-22.687 -7.378)" fill="#ededee"></path><path id="Path_353" data-name="Path 353" d="M88.494,19.7h-3.58a1.826,1.826,0,0,0-1.826,1.826v3.58a1.826,1.826,0,0,0,1.826,1.826h3.58a1.826,1.826,0,0,0,1.826-1.826v-3.58A1.826,1.826,0,0,0,88.494,19.7" transform="translate(-31.118 -7.378)" fill="#ededee"></path><path id="Path_354" data-name="Path 354" d="M111.052,19.7h-3.677a1.777,1.777,0,0,0-1.778,1.777v3.677a1.777,1.777,0,0,0,1.778,1.778h3.677a1.778,1.778,0,0,0,1.778-1.778V21.478a1.778,1.778,0,0,0-1.778-1.777" transform="translate(-39.548 -7.378)" fill="#ededee"></path><path id="Path_355" data-name="Path 355" d="M21.014,40.994H17.337a1.777,1.777,0,0,0-1.778,1.777v3.678a1.778,1.778,0,0,0,1.778,1.778h3.677a1.778,1.778,0,0,0,1.777-1.778V42.771a1.777,1.777,0,0,0-1.777-1.777" transform="translate(-5.827 -15.353)" fill="#ededee"></path><path id="Path_356" data-name="Path 356" d="M43.475,40.994H39.894a1.826,1.826,0,0,0-1.826,1.826V46.4a1.826,1.826,0,0,0,1.826,1.826h3.581A1.826,1.826,0,0,0,45.3,46.4V42.82a1.826,1.826,0,0,0-1.826-1.826" transform="translate(-14.257 -15.353)" fill="#ededee"></path><path id="Path_357" data-name="Path 357" d="M65.985,40.994H62.4a1.826,1.826,0,0,0-1.826,1.826V46.4A1.826,1.826,0,0,0,62.4,48.226h3.581A1.826,1.826,0,0,0,67.81,46.4V42.82a1.826,1.826,0,0,0-1.826-1.826" transform="translate(-22.687 -15.353)" fill="#ededee"></path><path id="Path_358" data-name="Path 358" d="M88.494,40.994h-3.58a1.826,1.826,0,0,0-1.826,1.826V46.4a1.826,1.826,0,0,0,1.826,1.826h3.58A1.826,1.826,0,0,0,90.32,46.4V42.82a1.826,1.826,0,0,0-1.826-1.826" transform="translate(-31.118 -15.353)" fill="#ededee"></path><path id="Path_359" data-name="Path 359" d="M111.052,40.994h-3.677a1.777,1.777,0,0,0-1.778,1.777v3.678a1.778,1.778,0,0,0,1.778,1.778h3.677a1.778,1.778,0,0,0,1.778-1.778V42.771a1.778,1.778,0,0,0-1.778-1.777" transform="translate(-39.548 -15.353)" fill="#ededee"></path><circle id="Ellipse_29" data-name="Ellipse 29" cx="0.291" cy="0.291" r="0.291" transform="translate(34.114 40.216)" fill="none" stroke="#414141" stroke-linecap="round" stroke-linejoin="round" stroke-width="3"></circle><path id="Path_360" data-name="Path 360" d="M66.476,64.586a.291.291,0,1,1-.291-.291A.291.291,0,0,1,66.476,64.586Z" transform="translate(-24.678 -24.079)" fill="none" stroke="#414141" stroke-linecap="round" stroke-linejoin="round" stroke-width="3.5"></path><path id="Path_361" data-name="Path 361" d="M77.829,64.586a.291.291,0,1,1-.291-.291A.291.291,0,0,1,77.829,64.586Z" transform="translate(-28.93 -24.079)" fill="none" stroke="#414141" stroke-linecap="round" stroke-linejoin="round" stroke-width="3.5"></path></g></svg>