<svg xmlns="http://www.w3.org/2000/svg" xmlns:xlink="http://www.w3.org/1999/xlink" id="Group_286" data-name="Group 286" width="74.958" height="77.195" viewBox="0 0 74.958 77.195"><defs><clipPath id="clip-path"><rect id="Rectangle_129" data-name="Rectangle 129" width="74.958" height="77.195" fill="none"></rect></clipPath></defs><g id="Group_287" data-name="Group 287"><g id="Group_286-2" data-name="Group 286" clip-path="url(#clip-path)"><path id="Path_409" data-name="Path 409" d="M87.576,43.992l9.8,9.516V12.3A10.157,10.157,0,0,0,87.217,2.142H52.55A10.156,10.156,0,0,0,42.394,12.3V33.836A10.156,10.156,0,0,0,52.55,43.992Z" transform="translate(-23.378 -1.181)" fill="none" stroke="#344154" stroke-linecap="round" stroke-linejoin="round" stroke-width="3.5"></path><path id="Path_410" data-name="Path 410" d="M57.124,78.762v8.37A10.157,10.157,0,0,1,46.966,97.289H11.941l-9.8,9.516V65.6A10.156,10.156,0,0,1,12.3,55.439h2.237" transform="translate(-1.182 -30.571)" fill="none" stroke="#344154" stroke-linecap="round" stroke-linejoin="round" stroke-width="3.5"></path><path id="Path_411" data-name="Path 411" d="M87.462,15.3l3.986,8.077A2.427,2.427,0,0,0,93.276,24.7l8.914,1.3a.333.333,0,0,1,.185.569l-6.45,6.287a2.425,2.425,0,0,0-.7,2.148l1.522,8.878a.333.333,0,0,1-.484.352L88.292,40.04a2.427,2.427,0,0,0-2.259,0l-7.972,4.191a.333.333,0,0,1-.484-.352L79.1,35a2.426,2.426,0,0,0-.7-2.148l-6.449-6.287A.333.333,0,0,1,72.136,26l8.913-1.3a2.427,2.427,0,0,0,1.828-1.328L86.863,15.3A.334.334,0,0,1,87.462,15.3Z" transform="translate(-39.621 -8.333)" fill="none" stroke="#344154" stroke-linecap="round" stroke-miterlimit="10" stroke-width="3.5"></path></g></g></svg>