<svg xmlns="http://www.w3.org/2000/svg" xmlns:xlink="http://www.w3.org/1999/xlink" id="Group_280" data-name="Group 280" width="100.274" height="72.824" viewBox="0 0 100.274 72.824"><defs><clipPath id="clip-path"><rect id="Rectangle_124" data-name="Rectangle 124" width="100.274" height="72.824" fill="none"></rect></clipPath></defs><g id="Group_280-2" data-name="Group 280" clip-path="url(#clip-path)"><path id="Path_376" data-name="Path 376" d="M96.321,89.56a92.135,92.135,0,0,1,9.492,5.842,7.252,7.252,0,0,1,1.6,1.815,8.065,8.065,0,0,1,1.173,4.288v6.6" transform="translate(-61.631 -57.305)" fill="none" stroke="#344154" stroke-linecap="round" stroke-miterlimit="10" stroke-width="3.5"></path><path id="Path_377" data-name="Path 377" d="M62.315,108.1H24.008v-6.6a8.064,8.064,0,0,1,1.173-4.288,7.264,7.264,0,0,1,1.6-1.815,92.18,92.18,0,0,1,9.492-5.842" transform="translate(-15.362 -57.306)" fill="none" stroke="#344154" stroke-linecap="round" stroke-miterlimit="10" stroke-width="3.5"></path><ellipse id="Ellipse_31" data-name="Ellipse 31" cx="9.643" cy="11.977" rx="9.643" ry="11.977" transform="translate(18.157 11.901)" fill="none" stroke="#344154" stroke-linecap="round" stroke-miterlimit="10" stroke-width="3.5"></ellipse><path id="Path_378" data-name="Path 378" d="M73.31,45.17a3.879,3.879,0,0,0-2.183.717c1.805,1.224,3.093,3.885,3.093,6.894s-1.288,5.669-3.093,6.893a3.876,3.876,0,0,0,2.183.717c2.86,0,5.276-3.485,5.276-7.61s-2.416-7.61-5.276-7.61" transform="translate(-45.511 -28.902)" fill="#35b4cf" stroke="#707070" stroke-width="3.5"></path><path id="Path_379" data-name="Path 379" d="M196.379,11.006a8.257,8.257,0,0,1,16.513,0" transform="translate(-125.653 -1.76)" fill="none" stroke="#344154" stroke-linecap="round" stroke-miterlimit="10" stroke-width="3.5"></path><path id="Path_380" data-name="Path 380" d="M261.109,100.778a21.5,21.5,0,0,1-2.244,8.55c-2.837,5.174-5.621,9.077-5.621,15.567" transform="translate(-162.038 -64.483)" fill="none" stroke="#344154" stroke-linecap="round" stroke-miterlimit="10" stroke-width="3.5"></path><path id="Path_381" data-name="Path 381" d="M234.544,62.353c.227-6.762.585-8.523-.845-9.49-1.62-1.1-3.255.254-4.524,1.51" transform="translate(-146.638 -33.566)" fill="none" stroke="#344154" stroke-linecap="round" stroke-miterlimit="10" stroke-width="3.5"></path><path id="Path_382" data-name="Path 382" d="M250.043,71.411c.227-6.763.585-8.524-.845-9.491-1.62-1.1-3.255.255-4.525,1.51" transform="translate(-156.555 -39.362)" fill="none" stroke="#344154" stroke-linecap="round" stroke-miterlimit="10" stroke-width="3.5"></path><path id="Path_383" data-name="Path 383" d="M265.544,83.2c.227-6.763.585-8.524-.845-9.491-1.62-1.1-3.255.254-4.524,1.51" transform="translate(-166.473 -46.905)" fill="none" stroke="#344154" stroke-linecap="round" stroke-miterlimit="10" stroke-width="3.5"></path><path id="Path_384" data-name="Path 384" d="M188.9,179.164V169.8a2.052,2.052,0,0,1,2.052-2.052h22.769a2.052,2.052,0,0,1,2.052,2.052v9.369" transform="translate(-120.868 -107.331)" fill="none" stroke="#344154" stroke-linecap="round" stroke-miterlimit="10" stroke-width="3.5"></path><path id="Path_385" data-name="Path 385" d="M184.021,73v-6.75c0-10.458-2.961-13.491-6.658-17.971a12.851,12.851,0,0,1-2.295-7.589,3.057,3.057,0,0,1,6.029-.474,7.814,7.814,0,0,1,.156,1.043,5.044,5.044,0,0,0,2.721,4.136,3.057,3.057,0,0,0,4.427-2.732V22.513a2.846,2.846,0,0,1,5.693,0v16.83" transform="translate(-112.003 -12.584)" fill="none" stroke="#344154" stroke-linecap="round" stroke-miterlimit="10" stroke-width="3.5"></path><path id="Path_386" data-name="Path 386" d="M56.675,15.375,68.936,2.751h-53.1A13.086,13.086,0,0,0,2.75,15.837V60.507A13.086,13.086,0,0,0,15.837,73.594H43.587A13.087,13.087,0,0,0,56.675,60.507Z" transform="translate(-1.76 -1.76)" fill="none" stroke="#344154" stroke-linecap="round" stroke-miterlimit="10" stroke-width="3.5"></path></g></svg>