<svg id="visual" viewBox="0 0 600 400" width="600" height="400" xmlns="http://www.w3.org/2000/svg" xmlns:xlink="http://www.w3.org/1999/xlink" version="1.1"><rect x="0" y="0" width="600" height="400" fill="#2a3795"></rect><path d="M0 202L11.2 201C22.3 200 44.7 198 66.8 194.5C89 191 111 186 133.2 185.3C155.3 184.7 177.7 188.3 200 191.7C222.3 195 244.7 198 266.8 197.3C289 196.7 311 192.3 333.2 191.3C355.3 190.3 377.7 192.7 400 193.3C422.3 194 444.7 193 466.8 190.5C489 188 511 184 533.2 185.7C555.3 187.3 577.7 194.7 588.8 198.3L600 202L600 0L588.8 0C577.7 0 555.3 0 533.2 0C511 0 489 0 466.8 0C444.7 0 422.3 0 400 0C377.7 0 355.3 0 333.2 0C311 0 289 0 266.8 0C244.7 0 222.3 0 200 0C177.7 0 155.3 0 133.2 0C111 0 89 0 66.8 0C44.7 0 22.3 0 11.2 0L0 0Z" fill="#2a3795"></path><path d="M0 180L11.2 174.7C22.3 169.3 44.7 158.7 66.8 158.7C89 158.7 111 169.3 133.2 170.5C155.3 171.7 177.7 163.3 200 163.3C222.3 163.3 244.7 171.7 266.8 176.2C289 180.7 311 181.3 333.2 176.8C355.3 172.3 377.7 162.7 400 158.8C422.3 155 444.7 157 466.8 158.2C489 159.3 511 159.7 533.2 157.5C555.3 155.3 577.7 150.7 588.8 148.3L600 146L600 0L588.8 0C577.7 0 555.3 0 533.2 0C511 0 489 0 466.8 0C444.7 0 422.3 0 400 0C377.7 0 355.3 0 333.2 0C311 0 289 0 266.8 0C244.7 0 222.3 0 200 0C177.7 0 155.3 0 133.2 0C111 0 89 0 66.8 0C44.7 0 22.3 0 11.2 0L0 0Z" fill="#5150a4"></path><path d="M0 153L11.2 151.8C22.3 150.7 44.7 148.3 66.8 144.2C89 140 111 134 133.2 135.5C155.3 137 177.7 146 200 151.7C222.3 157.3 244.7 159.7 266.8 159.7C289 159.7 311 157.3 333.2 156.2C355.3 155 377.7 155 400 152.5C422.3 150 444.7 145 466.8 140.5C489 136 511 132 533.2 132.5C555.3 133 577.7 138 588.8 140.5L600 143L600 0L588.8 0C577.7 0 555.3 0 533.2 0C511 0 489 0 466.8 0C444.7 0 422.3 0 400 0C377.7 0 355.3 0 333.2 0C311 0 289 0 266.8 0C244.7 0 222.3 0 200 0C177.7 0 155.3 0 133.2 0C111 0 89 0 66.8 0C44.7 0 22.3 0 11.2 0L0 0Z" fill="#706bb3"></path><path d="M0 125L11.2 126.7C22.3 128.3 44.7 131.7 66.8 128.2C89 124.7 111 114.3 133.2 114.7C155.3 115 177.7 126 200 125C222.3 124 244.7 111 266.8 104.7C289 98.3 311 98.7 333.2 102.5C355.3 106.3 377.7 113.7 400 114.2C422.3 114.7 444.7 108.3 466.8 105.3C489 102.3 511 102.7 533.2 101.7C555.3 100.7 577.7 98.3 588.8 97.2L600 96L600 0L588.8 0C577.7 0 555.3 0 533.2 0C511 0 489 0 466.8 0C444.7 0 422.3 0 400 0C377.7 0 355.3 0 333.2 0C311 0 289 0 266.8 0C244.7 0 222.3 0 200 0C177.7 0 155.3 0 133.2 0C111 0 89 0 66.8 0C44.7 0 22.3 0 11.2 0L0 0Z" fill="#8e87c2"></path><path d="M0 76L11.2 77.7C22.3 79.3 44.7 82.7 66.8 83.7C89 84.7 111 83.3 133.2 84C155.3 84.7 177.7 87.3 200 86.8C222.3 86.3 244.7 82.7 266.8 82.5C289 82.3 311 85.7 333.2 85.3C355.3 85 377.7 81 400 85C422.3 89 444.7 101 466.8 106.8C489 112.7 511 112.3 533.2 109.2C555.3 106 577.7 100 588.8 97L600 94L600 0L588.8 0C577.7 0 555.3 0 533.2 0C511 0 489 0 466.8 0C444.7 0 422.3 0 400 0C377.7 0 355.3 0 333.2 0C311 0 289 0 266.8 0C244.7 0 222.3 0 200 0C177.7 0 155.3 0 133.2 0C111 0 89 0 66.8 0C44.7 0 22.3 0 11.2 0L0 0Z" fill="#aaa3d2"></path><path d="M0 54L11.2 59C22.3 64 44.7 74 66.8 76C89 78 111 72 133.2 70C155.3 68 177.7 70 200 69.8C222.3 69.7 244.7 67.3 266.8 68.3C289 69.3 311 73.7 333.2 74.7C355.3 75.7 377.7 73.3 400 72C422.3 70.7 444.7 70.3 466.8 69.5C489 68.7 511 67.3 533.2 69.8C555.3 72.3 577.7 78.7 588.8 81.8L600 85L600 0L588.8 0C577.7 0 555.3 0 533.2 0C511 0 489 0 466.8 0C444.7 0 422.3 0 400 0C377.7 0 355.3 0 333.2 0C311 0 289 0 266.8 0C244.7 0 222.3 0 200 0C177.7 0 155.3 0 133.2 0C111 0 89 0 66.8 0C44.7 0 22.3 0 11.2 0L0 0Z" fill="#c6c1e1"></path><path d="M0 34L11.2 37C22.3 40 44.7 46 66.8 50.7C89 55.3 111 58.7 133.2 58.8C155.3 59 177.7 56 200 52.8C222.3 49.7 244.7 46.3 266.8 44.3C289 42.3 311 41.7 333.2 44.8C355.3 48 377.7 55 400 55.5C422.3 56 444.7 50 466.8 46.8C489 43.7 511 43.3 533.2 46.3C555.3 49.3 577.7 55.7 588.8 58.8L600 62L600 0L588.8 0C577.7 0 555.3 0 533.2 0C511 0 489 0 466.8 0C444.7 0 422.3 0 400 0C377.7 0 355.3 0 333.2 0C311 0 289 0 266.8 0C244.7 0 222.3 0 200 0C177.7 0 155.3 0 133.2 0C111 0 89 0 66.8 0C44.7 0 22.3 0 11.2 0L0 0Z" fill="#e3e0f0"></path><path d="M0 24L11.2 23.7C22.3 23.3 44.7 22.7 66.8 24C89 25.3 111 28.7 133.2 27.2C155.3 25.7 177.7 19.3 200 17.7C222.3 16 244.7 19 266.8 20.8C289 22.7 311 23.3 333.2 21.8C355.3 20.3 377.7 16.7 400 16.8C422.3 17 444.7 21 466.8 25.2C489 29.3 511 33.7 533.2 33.8C555.3 34 577.7 30 588.8 28L600 26L600 0L588.8 0C577.7 0 555.3 0 533.2 0C511 0 489 0 466.8 0C444.7 0 422.3 0 400 0C377.7 0 355.3 0 333.2 0C311 0 289 0 266.8 0C244.7 0 222.3 0 200 0C177.7 0 155.3 0 133.2 0C111 0 89 0 66.8 0C44.7 0 22.3 0 11.2 0L0 0Z" fill="#ffffff"></path></svg>