<svg id="visual" viewBox="0 0 960 300" width="960" height="300" xmlns="http://www.w3.org/2000/svg" xmlns:xlink="http://www.w3.org/1999/xlink" version="1.1"><rect x="0" y="0" width="960" height="300" fill="#2a3795"></rect><path d="M0 151L17.8 150.3C35.7 149.7 71.3 148.3 106.8 145.8C142.3 143.3 177.7 139.7 213.2 139.2C248.7 138.7 284.3 141.3 320 143.8C355.7 146.3 391.3 148.7 426.8 148.2C462.3 147.7 497.7 144.3 533.2 143.5C568.7 142.7 604.3 144.3 640 144.8C675.7 145.3 711.3 144.7 746.8 142.8C782.3 141 817.7 138 853.2 139.2C888.7 140.3 924.3 145.7 942.2 148.3L960 151L960 0L942.2 0C924.3 0 888.7 0 853.2 0C817.7 0 782.3 0 746.8 0C711.3 0 675.7 0 640 0C604.3 0 568.7 0 533.2 0C497.7 0 462.3 0 426.8 0C391.3 0 355.7 0 320 0C284.3 0 248.7 0 213.2 0C177.7 0 142.3 0 106.8 0C71.3 0 35.7 0 17.8 0L0 0Z" fill="#2a3795"></path><path d="M0 135L17.8 131C35.7 127 71.3 119 106.8 119C142.3 119 177.7 127 213.2 127.8C248.7 128.7 284.3 122.3 320 122.3C355.7 122.3 391.3 128.7 426.8 132C462.3 135.3 497.7 135.7 533.2 132.3C568.7 129 604.3 122 640 119.2C675.7 116.3 711.3 117.7 746.8 118.5C782.3 119.3 817.7 119.7 853.2 118C888.7 116.3 924.3 112.7 942.2 110.8L960 109L960 0L942.2 0C924.3 0 888.7 0 853.2 0C817.7 0 782.3 0 746.8 0C711.3 0 675.7 0 640 0C604.3 0 568.7 0 533.2 0C497.7 0 462.3 0 426.8 0C391.3 0 355.7 0 320 0C284.3 0 248.7 0 213.2 0C177.7 0 142.3 0 106.8 0C71.3 0 35.7 0 17.8 0L0 0Z" fill="#5150a4"></path><path d="M0 114L17.8 113.3C35.7 112.7 71.3 111.3 106.8 108.3C142.3 105.3 177.7 100.7 213.2 101.7C248.7 102.7 284.3 109.3 320 113.5C355.7 117.7 391.3 119.3 426.8 119.3C462.3 119.3 497.7 117.7 533.2 116.8C568.7 116 604.3 116 640 114.2C675.7 112.3 711.3 108.7 746.8 105.2C782.3 101.7 817.7 98.3 853.2 98.7C888.7 99 924.3 103 942.2 105L960 107L960 0L942.2 0C924.3 0 888.7 0 853.2 0C817.7 0 782.3 0 746.8 0C711.3 0 675.7 0 640 0C604.3 0 568.7 0 533.2 0C497.7 0 462.3 0 426.8 0C391.3 0 355.7 0 320 0C284.3 0 248.7 0 213.2 0C177.7 0 142.3 0 106.8 0C71.3 0 35.7 0 17.8 0L0 0Z" fill="#706bb3"></path><path d="M0 94L17.8 95.2C35.7 96.3 71.3 98.7 106.8 96C142.3 93.3 177.7 85.7 213.2 86C248.7 86.3 284.3 94.7 320 93.8C355.7 93 391.3 83 426.8 78.2C462.3 73.3 497.7 73.7 533.2 76.5C568.7 79.3 604.3 84.7 640 85.2C675.7 85.7 711.3 81.3 746.8 79.2C782.3 77 817.7 77 853.2 76.2C888.7 75.3 924.3 73.7 942.2 72.8L960 72L960 0L942.2 0C924.3 0 888.7 0 853.2 0C817.7 0 782.3 0 746.8 0C711.3 0 675.7 0 640 0C604.3 0 568.7 0 533.2 0C497.7 0 462.3 0 426.8 0C391.3 0 355.7 0 320 0C284.3 0 248.7 0 213.2 0C177.7 0 142.3 0 106.8 0C71.3 0 35.7 0 17.8 0L0 0Z" fill="#8e87c2"></path><path d="M0 57L17.8 58.2C35.7 59.3 71.3 61.7 106.8 62.3C142.3 63 177.7 62 213.2 62.5C248.7 63 284.3 65 320 64.7C355.7 64.3 391.3 61.7 426.8 61.7C462.3 61.7 497.7 64.3 533.2 64.2C568.7 64 604.3 61 640 63.8C675.7 66.7 711.3 75.3 746.8 79.7C782.3 84 817.7 84 853.2 81.7C888.7 79.3 924.3 74.7 942.2 72.3L960 70L960 0L942.2 0C924.3 0 888.7 0 853.2 0C817.7 0 782.3 0 746.8 0C711.3 0 675.7 0 640 0C604.3 0 568.7 0 533.2 0C497.7 0 462.3 0 426.8 0C391.3 0 355.7 0 320 0C284.3 0 248.7 0 213.2 0C177.7 0 142.3 0 106.8 0C71.3 0 35.7 0 17.8 0L0 0Z" fill="#aaa3d2"></path><path d="M0 40L17.8 43.8C35.7 47.7 71.3 55.3 106.8 56.8C142.3 58.3 177.7 53.7 213.2 52.2C248.7 50.7 284.3 52.3 320 52.3C355.7 52.3 391.3 50.7 426.8 51.3C462.3 52 497.7 55 533.2 55.7C568.7 56.3 604.3 54.7 640 53.7C675.7 52.7 711.3 52.3 746.8 51.7C782.3 51 817.7 50 853.2 51.8C888.7 53.7 924.3 58.3 942.2 60.7L960 63L960 0L942.2 0C924.3 0 888.7 0 853.2 0C817.7 0 782.3 0 746.8 0C711.3 0 675.7 0 640 0C604.3 0 568.7 0 533.2 0C497.7 0 462.3 0 426.8 0C391.3 0 355.7 0 320 0C284.3 0 248.7 0 213.2 0C177.7 0 142.3 0 106.8 0C71.3 0 35.7 0 17.8 0L0 0Z" fill="#c6c1e1"></path><path d="M0 25L17.8 27.3C35.7 29.7 71.3 34.3 106.8 37.8C142.3 41.3 177.7 43.7 213.2 43.7C248.7 43.7 284.3 41.3 320 39C355.7 36.7 391.3 34.3 426.8 32.8C462.3 31.3 497.7 30.7 533.2 33C568.7 35.3 604.3 40.7 640 41.2C675.7 41.7 711.3 37.3 746.8 35C782.3 32.7 817.7 32.3 853.2 34.5C888.7 36.7 924.3 41.3 942.2 43.7L960 46L960 0L942.2 0C924.3 0 888.7 0 853.2 0C817.7 0 782.3 0 746.8 0C711.3 0 675.7 0 640 0C604.3 0 568.7 0 533.2 0C497.7 0 462.3 0 426.8 0C391.3 0 355.7 0 320 0C284.3 0 248.7 0 213.2 0C177.7 0 142.3 0 106.8 0C71.3 0 35.7 0 17.8 0L0 0Z" fill="#e3e0f0"></path><path d="M0 18L17.8 17.7C35.7 17.3 71.3 16.7 106.8 17.5C142.3 18.3 177.7 20.7 213.2 19.7C248.7 18.7 284.3 14.3 320 13.2C355.7 12 391.3 14 426.8 15.2C462.3 16.3 497.7 16.7 533.2 15.5C568.7 14.3 604.3 11.7 640 11.8C675.7 12 711.3 15 746.8 18.2C782.3 21.3 817.7 24.7 853.2 24.8C888.7 25 924.3 22 942.2 20.5L960 19L960 0L942.2 0C924.3 0 888.7 0 853.2 0C817.7 0 782.3 0 746.8 0C711.3 0 675.7 0 640 0C604.3 0 568.7 0 533.2 0C497.7 0 462.3 0 426.8 0C391.3 0 355.7 0 320 0C284.3 0 248.7 0 213.2 0C177.7 0 142.3 0 106.8 0C71.3 0 35.7 0 17.8 0L0 0Z" fill="#ffffff"></path></svg>