<svg id="visual" viewBox="0 0 960 300" width="960" height="300" xmlns="http://www.w3.org/2000/svg" xmlns:xlink="http://www.w3.org/1999/xlink" version="1.1"><path d="M0 235L12.3 229.8C24.7 224.7 49.3 214.3 74 212.5C98.7 210.7 123.3 217.3 148 221.3C172.7 225.3 197.3 226.7 221.8 224C246.3 221.3 270.7 214.7 295.2 211.3C319.7 208 344.3 208 369 211C393.7 214 418.3 220 443 226.2C467.7 232.3 492.3 238.7 517 241.5C541.7 244.3 566.3 243.7 591 238.5C615.7 233.3 640.3 223.7 664.8 216.8C689.3 210 713.7 206 738.2 205.8C762.7 205.7 787.3 209.3 812 214.3C836.7 219.3 861.3 225.7 886 225.8C910.7 226 935.3 220 947.7 217L960 214L960 301L947.7 301C935.3 301 910.7 301 886 301C861.3 301 836.7 301 812 301C787.3 301 762.7 301 738.2 301C713.7 301 689.3 301 664.8 301C640.3 301 615.7 301 591 301C566.3 301 541.7 301 517 301C492.3 301 467.7 301 443 301C418.3 301 393.7 301 369 301C344.3 301 319.7 301 295.2 301C270.7 301 246.3 301 221.8 301C197.3 301 172.7 301 148 301C123.3 301 98.7 301 74 301C49.3 301 24.7 301 12.3 301L0 301Z" fill="#4EC2E0" stroke-linecap="round" stroke-linejoin="miter"></path></svg>