<svg id="visual" viewBox="0 0 600 700" width="600" height="700" xmlns="http://www.w3.org/2000/svg" xmlns:xlink="http://www.w3.org/1999/xlink" version="1.1"><path d="M0 610L8.3 615.2C16.7 620.3 33.3 630.7 50 632.5C66.7 634.3 83.3 627.7 100 626.5C116.7 625.3 133.3 629.7 150 632.8C166.7 636 183.3 638 200 640.7C216.7 643.3 233.3 646.7 250 643.2C266.7 639.7 283.3 629.3 300 629.2C316.7 629 333.3 639 350 637.3C366.7 635.7 383.3 622.3 400 621.7C416.7 621 433.3 633 450 635C466.7 637 483.3 629 500 625.2C516.7 621.3 533.3 621.7 550 624C566.7 626.3 583.3 630.7 591.7 632.8L600 635L600 701L591.7 701C583.3 701 566.7 701 550 701C533.3 701 516.7 701 500 701C483.3 701 466.7 701 450 701C433.3 701 416.7 701 400 701C383.3 701 366.7 701 350 701C333.3 701 316.7 701 300 701C283.3 701 266.7 701 250 701C233.3 701 216.7 701 200 701C183.3 701 166.7 701 150 701C133.3 701 116.7 701 100 701C83.3 701 66.7 701 50 701C33.3 701 16.7 701 8.3 701L0 701Z" fill="#4EC2E0" stroke-linecap="round" stroke-linejoin="miter"></path></svg>